<?xml version="1.0" standalone="no"?>
<!DOCTYPE svg PUBLIC "-//W3C//DTD SVG 20010904//EN"
 "http://www.w3.org/TR/2001/REC-SVG-20010904/DTD/svg10.dtd">
<svg version="1.0" xmlns="http://www.w3.org/2000/svg"
 width="528.000000pt" height="473.000000pt" viewBox="0 0 528.000000 473.000000"
 preserveAspectRatio="xMidYMid meet">

<g transform="translate(0.000000,473.000000) scale(0.100000,-0.100000)"
fill="#000000" stroke="none">
<path d="M2795 3100 c-22 -5 -73 -20 -112 -34 -40 -14 -85 -26 -100 -27 -21
-1 -13 -6 32 -21 50 -17 78 -19 170 -15 l110 5 -44 -20 c-26 -12 -75 -22 -121
-25 -68 -5 -91 -2 -184 27 -122 37 -162 36 -232 -5 -71 -42 -100 -85 -139
-207 -20 -62 -48 -164 -63 -226 l-27 -114 -210 7 c-547 18 -1240 -63 -1462
-171 -64 -31 -120 -91 -129 -139 -24 -128 189 -319 431 -386 76 -21 87 -21
235 -10 499 37 1212 206 1820 433 202 75 483 194 612 259 l57 29 -38 62 c-21
35 -82 150 -135 256 -79 155 -106 200 -142 231 -94 83 -211 115 -329 91z
m-1175 -765 c72 -30 94 -31 152 -5 57 25 87 27 172 10 72 -15 84 -26 67 -58
-10 -18 -26 -20 -238 -26 -477 -14 -726 -36 -933 -82 -143 -32 -214 -67 -218
-108 -8 -69 55 -137 182 -197 94 -44 88 -54 -31 -47 -79 5 -93 14 -93 56 0 17
-6 22 -26 22 -14 0 -45 5 -70 11 -42 11 -44 13 -44 49 0 36 -3 39 -55 65 -30
14 -55 31 -55 36 0 5 -1 12 -2 15 -2 3 21 15 51 27 51 21 55 25 65 67 l11 45
100 5 c93 5 103 7 144 38 49 36 85 40 184 21 56 -10 59 -9 137 30 l80 40 67
-20 c88 -25 117 -24 194 6 80 30 87 30 159 0z m695 -120 c138 0 290 3 340 8
54 4 86 4 80 -2 -27 -25 -372 -138 -526 -172 -71 -15 -102 -17 -178 -10 -50 5
-94 11 -97 14 -7 7 10 63 42 134 l23 52 33 -12 c23 -8 111 -12 283 -12z"/>
<path d="M4550 2669 c-193 -23 -490 -92 -703 -163 -73 -25 -226 -85 -342 -134
-896 -381 -1751 -614 -2435 -662 -85 -6 -156 -12 -157 -14 -4 -4 50 -10 251
-32 427 -45 1250 -77 1405 -55 233 33 487 121 1006 346 615 267 892 353 1150
358 117 2 115 5 90 -109 -20 -89 -53 -136 -82 -117 -62 43 -79 47 -163 46
-141 -1 -297 -48 -875 -262 -376 -140 -669 -230 -833 -256 -75 -12 -39 -15 49
-5 46 6 167 31 269 55 102 25 210 47 241 51 l55 6 33 -41 c24 -30 40 -41 59
-41 37 0 364 81 549 136 216 63 433 139 540 189 76 36 97 51 127 91 83 113
140 304 141 471 0 151 4 147 -168 150 -73 1 -166 -3 -207 -8z m308 -94 c4 -51
-10 -61 -49 -34 -84 58 -85 72 -6 67 50 -3 52 -4 55 -33z m-220 -15 c29 -16
88 -55 132 -87 79 -58 92 -79 71 -112 -8 -12 -16 -9 -44 16 -46 40 -113 86
-171 117 l-47 25 -79 -68 c-44 -38 -114 -95 -155 -126 l-76 -58 -82 32 c-97
39 -210 76 -252 84 -29 5 -32 2 -89 -94 -32 -55 -64 -116 -71 -134 -6 -19 -14
-37 -16 -40 -3 -3 -25 2 -50 10 -44 15 -206 45 -240 45 -13 0 -29 -20 -50 -62
-56 -112 -111 -188 -135 -188 -13 0 -82 10 -155 21 l-133 22 -16 -24 c-13 -20
-114 -143 -155 -188 -11 -11 -22 -10 -71 7 -69 25 -232 72 -246 72 -6 0 -40
-29 -76 -64 -94 -90 -98 -91 -190 -70 -43 9 -111 19 -152 23 -69 6 -75 8 -78
30 l-4 24 129 -6 c70 -3 140 -9 154 -12 23 -6 38 4 108 70 82 76 83 77 124 70
23 -4 85 -21 137 -37 52 -16 104 -32 116 -35 17 -4 33 9 76 60 30 36 70 86 89
111 29 41 37 46 59 40 28 -7 284 -52 287 -50 1 0 29 59 62 130 l62 129 67 -7
c37 -4 106 -15 154 -24 78 -16 88 -16 93 -2 15 38 141 243 152 247 31 12 187
-34 344 -101 l36 -15 109 88 c60 49 125 105 143 125 19 20 44 36 55 36 12 0
45 -13 74 -30z m-288 -18 c0 -5 -14 -28 -30 -50 -35 -49 -60 -53 -117 -20 -21
12 -40 23 -42 25 -12 9 21 24 79 37 78 17 110 19 110 8z m-620 -178 c0 -29
-40 -84 -61 -84 -32 0 -109 22 -109 30 0 9 137 69 158 70 6 0 12 -7 12 -16z
m-452 -211 c-2 -5 -10 -25 -17 -45 -8 -21 -20 -39 -25 -41 -17 -5 -116 14
-116 22 0 9 129 71 148 71 8 0 12 -3 10 -7z m-480 -198 c-18 -25 -38 -45 -45
-45 -21 0 -93 31 -93 41 0 10 152 59 162 53 4 -3 -7 -25 -24 -49z m-478 -103
c0 -5 -9 -18 -20 -30 -20 -21 -23 -21 -50 -7 -17 9 -30 18 -30 20 0 6 59 23
83 24 9 1 17 -3 17 -7z"/>
</g>
</svg>
